{"glyphs":{":":{"x_min":0,"x_max":316,"ha":316,"o":"m 110 0 l 110 96 l 206 96 l 206 0 z m 110 434 l 110 530 l 206 530 l 206 434 z"},"$":{"x_min":0,"x_max":632,"ha":632,"o":"m 298 -60 l 298 0 q 212 0 105 41 l 105 124 q 216 72 298 72 l 298 332 q 217 381 187 411 q 156 441 141 478 q 126 515 126 549 q 126 592 147 632 q 168 671 204 695 q 240 718 298 723 l 298 783 l 346 783 l 346 723 q 369 723 414 715 q 459 707 503 690 l 503 611 q 456 632 424 643 q 392 653 346 657 l 346 399 q 373 383 386 375 q 470 324 493 287 q 515 250 515 202 q 515 130 471 73 q 427 17 346 0 l 346 -60 z m 346 78 q 391 94 411 125 q 431 155 431 188 q 431 211 421 235 q 411 258 346 303 z m 298 431 l 298 654 q 253 640 232 612 q 211 584 211 551 q 211 531 219 510 q 227 488 242 473 q 257 458 298 431 z"},"?":{"x_min":0,"x_max":422,"ha":422,"o":"m 122 0 l 122 96 l 218 96 l 218 0 z m 122 193 l 122 219 q 122 273 136 309 q 150 344 194 395 l 225 430 q 273 485 287 515 q 301 544 301 574 q 301 616 268 642 q 235 668 176 668 q 102 668 18 632 l 18 714 q 108 741 188 741 q 286 741 345 697 q 404 652 404 576 q 404 550 396 527 q 389 503 376 484 q 363 464 322 425 l 292 397 q 247 354 233 326 q 218 298 218 247 l 218 193 z"},"<":{"x_min":0,"x_max":632,"ha":632,"o":"m 582 24 l 51 289 l 582 554 l 582 470 l 213 289 l 582 108 z"},"'":{"x_min":0,"x_max":229,"ha":229,"o":"m 78 506 l 54 771 l 175 771 l 150 506 z"},"=":{"x_min":0,"x_max":632,"ha":632,"o":"m 51 168 l 51 241 l 582 241 l 582 168 z m 51 337 l 51 410 l 582 410 l 582 337 z"},"a":{"x_min":0,"x_max":552,"ha":552,"o":"m 370 67 q 327 28 285 8 q 243 -12 203 -12 q 147 -12 99 25 q 50 62 50 133 q 50 211 118 262 q 185 313 333 313 l 355 313 l 355 377 q 355 416 345 433 q 335 450 313 460 q 292 470 259 470 q 185 470 96 423 l 96 502 q 193 542 279 542 q 326 542 365 527 q 405 512 428 480 q 452 448 452 377 l 452 137 q 452 97 458 83 q 464 69 476 62 q 487 55 502 55 q 509 55 521 57 l 528 3 q 495 -12 456 -12 q 429 -12 405 5 q 380 22 370 67 z m 355 120 l 355 257 l 325 258 q 249 258 198 229 q 146 199 146 149 q 146 114 172 90 q 197 66 230 66 q 261 66 292 80 q 323 93 355 120 z"},"L":{"x_min":0,"x_max":533,"ha":533,"o":"m 93 0 l 93 723 l 196 723 l 196 77 l 521 77 l 521 0 z"},"3":{"x_min":0,"x_max":632,"ha":632,"o":"m 102 5 l 102 95 q 205 54 264 54 q 333 54 376 94 q 420 135 420 199 q 420 261 375 306 q 331 351 207 351 l 168 351 l 168 416 l 202 417 q 318 417 360 459 q 402 501 402 558 q 402 608 369 638 q 335 668 270 668 q 198 668 111 628 l 111 712 q 173 733 208 737 q 243 741 276 741 q 391 741 445 695 q 499 649 499 573 q 499 531 483 499 q 468 467 436 439 q 404 412 348 392 q 419 375 453 349 q 488 323 505 284 q 523 245 523 200 q 523 115 465 49 q 407 -18 271 -18 q 203 -18 102 5 z"},";":{"x_min":0,"x_max":316,"ha":316,"o":"m 110 -157 l 110 -121 q 128 -111 136 -89 q 145 -67 145 -11 l 145 0 l 110 0 l 110 96 l 206 96 l 206 15 q 206 -47 195 -76 q 185 -104 161 -127 q 138 -150 110 -157 z m 110 434 l 110 530 l 206 530 l 206 434 z"},"J":{"x_min":0,"x_max":311,"ha":311,"o":"m -90 -134 l -90 -43 q -31 -62 15 -62 q 46 -62 68 -51 q 91 -40 105 -13 q 119 14 119 88 l 119 723 l 221 723 l 221 91 q 221 -33 163 -89 q 104 -145 -2 -145 q -36 -145 -90 -134 z"},"V":{"x_min":0,"x_max":654,"ha":654,"o":"m 291 0 l 18 723 l 120 723 l 344 131 l 560 723 l 649 723 l 387 0 z"},"\"":{"x_min":0,"x_max":374,"ha":374,"o":"m 66 530 l 54 771 l 150 771 l 139 530 z m 235 530 l 223 771 l 319 771 l 307 530 z"},"7":{"x_min":0,"x_max":632,"ha":632,"o":"m 150 0 q 167 98 198 162 q 228 226 283 315 l 480 632 l 108 632 l 108 723 l 572 723 l 572 632 q 479 495 418 385 q 357 275 315 178 q 273 81 261 0 z"},"S":{"x_min":0,"x_max":539,"ha":539,"o":"m 49 14 l 49 115 q 136 75 176 67 q 216 59 250 59 q 312 59 348 93 q 384 126 384 174 q 384 209 365 240 q 346 270 271 312 l 221 341 q 121 398 87 445 q 53 492 53 549 q 53 600 80 645 q 107 690 153 715 q 198 741 268 741 q 351 741 444 713 l 444 619 q 363 651 333 657 q 303 664 273 664 q 211 664 181 631 q 151 599 151 564 q 151 541 165 517 q 179 493 203 475 q 227 458 269 434 l 321 405 q 421 348 455 300 q 489 252 489 190 q 489 106 425 44 q 360 -18 235 -18 q 197 -18 161 -13 q 125 -8 49 14 z"},"}":{"x_min":0,"x_max":325,"ha":325,"o":"m 313 277 l 289 277 q 215 277 215 198 q 215 165 223 130 l 232 87 q 241 46 241 5 q 241 -33 220 -67 q 200 -101 165 -121 q 130 -141 66 -145 l 66 -72 l 80 -72 q 107 -72 132 -57 q 157 -42 157 -12 q 157 0 151 35 l 143 84 q 137 116 137 162 q 137 212 154 246 q 170 281 208 313 q 171 345 154 380 q 137 414 137 466 q 137 511 143 542 l 151 592 q 157 626 157 639 q 157 668 132 683 q 106 699 80 699 l 66 699 l 66 771 q 130 767 165 748 q 200 728 220 694 q 241 659 241 621 q 241 581 232 539 l 223 497 q 215 461 215 427 q 215 350 289 350 l 313 350 z"},"Z":{"x_min":0,"x_max":604,"ha":604,"o":"m 46 0 l 46 82 l 435 646 l 70 646 l 70 723 l 558 723 l 558 646 l 169 82 l 558 82 l 558 0 z"},"x":{"x_min":0,"x_max":613,"ha":613,"o":"m 43 0 l 245 274 l 49 530 l 163 530 l 318 326 l 458 530 l 552 530 l 368 261 l 568 0 l 454 0 l 294 210 l 140 0 z"},")":{"x_min":0,"x_max":325,"ha":325,"o":"m 36 705 l 36 771 q 116 717 165 642 q 214 566 240 481 q 265 395 265 313 q 265 231 240 146 q 214 60 165 -15 q 116 -91 36 -145 l 36 -78 q 91 -18 118 38 q 144 94 156 165 q 168 236 168 313 q 168 390 156 461 q 144 532 118 589 q 91 645 36 705 z"},"&":{"x_min":0,"x_max":697,"ha":697,"o":"m 518 0 l 482 43 q 402 -18 295 -18 q 224 -18 164 10 q 104 39 70 95 q 36 150 36 215 q 36 283 75 345 q 114 408 212 441 q 164 530 164 588 q 164 629 187 664 q 209 700 250 720 q 290 741 338 741 q 409 741 455 698 q 500 656 500 595 q 500 486 341 406 q 414 277 511 166 q 529 192 537 214 q 545 236 550 273 q 555 310 555 349 l 555 384 l 650 384 q 650 224 555 108 q 599 52 655 0 z m 440 99 q 373 182 333 242 q 293 301 245 384 q 179 358 156 320 q 132 282 132 239 q 132 192 157 146 q 182 101 221 78 q 260 54 311 54 q 379 54 440 99 z m 306 467 q 410 515 410 593 q 410 625 390 647 q 370 668 334 668 q 294 668 277 644 q 260 620 260 593 q 260 543 306 467 z"},"_":{"x_min":0,"x_max":500,"ha":500,"o":"m 42 -72 l 42 0 l 458 0 l 458 -72 z"},"v":{"x_min":0,"x_max":518,"ha":518,"o":"m 206 0 l 9 530 l 105 530 l 259 118 l 422 530 l 512 530 l 302 0 z"},"O":{"x_min":0,"x_max":777,"ha":777,"o":"m 389 -18 q 286 -18 210 28 q 134 74 93 162 q 51 250 51 361 q 51 469 91 557 q 130 645 208 693 q 286 741 389 741 q 492 741 569 693 q 647 645 687 557 q 727 469 727 361 q 727 254 687 167 q 648 79 571 31 q 494 -18 389 -18 z m 389 59 q 498 59 558 140 q 618 222 618 362 q 618 502 557 583 q 497 664 389 664 q 280 664 220 583 q 160 502 160 362 q 160 222 219 140 q 279 59 389 59 z"},"(":{"x_min":0,"x_max":325,"ha":325,"o":"m 289 -78 l 289 -145 q 209 -90 160 -15 q 111 60 85 146 q 60 231 60 313 q 60 396 85 481 q 111 566 160 642 q 209 717 289 771 l 289 705 q 234 645 208 589 q 181 532 169 462 q 156 391 156 313 q 156 235 169 165 q 181 94 208 38 q 234 -18 289 -78 z"},"C":{"x_min":0,"x_max":692,"ha":692,"o":"m 636 37 q 592 14 557 3 q 522 -8 484 -13 q 447 -18 403 -18 q 220 -18 135 90 q 51 198 51 361 q 51 527 139 634 q 227 741 408 741 q 505 741 635 709 l 635 613 q 526 650 485 657 q 443 664 406 664 q 276 664 218 576 q 160 488 160 360 q 160 227 227 144 q 294 62 417 62 q 451 62 485 68 q 519 74 553 86 q 586 98 636 125 z"},"W":{"x_min":0,"x_max":855,"ha":855,"o":"m 187 0 l 1 723 l 100 723 l 248 152 l 384 723 l 482 723 l 611 160 l 771 723 l 854 723 l 651 0 l 549 0 l 422 557 l 289 0 z"},"A":{"x_min":0,"x_max":690,"ha":690,"o":"m 8 0 l 295 723 l 396 723 l 679 0 l 568 0 l 489 200 l 183 200 l 104 0 z m 213 276 l 459 276 l 336 588 z"},"f":{"x_min":0,"x_max":368,"ha":368,"o":"m 114 0 l 114 458 l 39 458 l 39 530 l 114 530 l 114 594 q 114 659 131 697 q 148 734 186 759 q 225 783 287 783 q 335 783 397 767 l 397 691 q 332 711 293 711 q 271 711 252 704 q 233 697 222 679 q 211 661 211 604 l 211 530 l 343 530 l 343 458 l 211 458 l 211 0 z"},"Q":{"x_min":0,"x_max":777,"ha":777,"o":"m 735 -145 q 564 -89 449 -13 q 403 -18 378 -18 q 288 -18 209 30 q 130 77 91 166 q 51 254 51 361 q 51 469 90 557 q 130 645 208 693 q 286 741 389 741 q 492 741 570 693 q 648 645 687 556 q 727 468 727 360 q 727 249 684 157 q 641 66 542 15 q 666 -40 800 -63 z m 389 59 q 497 59 557 139 q 618 220 618 361 q 618 502 557 583 q 497 664 389 664 q 280 664 220 583 q 160 502 160 362 q 160 222 219 140 q 279 59 389 59 z"},"w":{"x_min":0,"x_max":771,"ha":771,"o":"m 158 0 l 6 530 l 100 530 l 216 120 l 342 530 l 438 530 l 548 120 l 681 530 l 764 530 l 591 0 l 494 0 l 382 411 l 255 0 z"},"-":{"x_min":0,"x_max":325,"ha":325,"o":"m 54 265 l 54 337 l 271 337 l 271 265 z"},"E":{"x_min":0,"x_max":542,"ha":542,"o":"m 93 0 l 93 723 l 497 723 l 497 646 l 196 646 l 196 414 l 448 414 l 448 338 l 196 338 l 196 77 l 518 77 l 518 0 z"},"s":{"x_min":0,"x_max":510,"ha":510,"o":"m 77 19 l 77 107 q 171 60 241 60 q 282 60 309 83 q 337 105 337 139 q 337 160 323 180 q 310 200 260 220 l 204 244 q 139 271 109 307 q 80 342 80 393 q 80 457 126 500 q 172 542 263 542 q 308 542 373 530 l 393 526 l 393 446 q 312 470 265 470 q 218 470 195 450 q 172 430 172 402 q 172 381 188 364 q 203 346 243 329 l 289 310 q 382 270 408 231 q 433 193 433 147 q 433 104 409 67 q 386 30 340 9 q 293 -12 237 -12 q 171 -12 77 19 z"},">":{"x_min":0,"x_max":632,"ha":632,"o":"m 51 554 l 582 289 l 51 24 l 51 108 l 420 289 l 51 470 z"},"l":{"x_min":0,"x_max":289,"ha":289,"o":"m 96 0 l 96 771 l 192 771 l 192 0 z"},"8":{"x_min":0,"x_max":632,"ha":632,"o":"m 230 394 q 161 441 143 478 q 124 515 124 557 q 124 636 183 689 q 242 741 341 741 q 430 741 486 698 q 541 654 541 585 q 541 537 513 490 q 484 444 406 394 q 497 349 533 300 q 570 251 570 187 q 570 103 504 42 q 439 -18 326 -18 q 209 -18 148 40 q 86 98 86 178 q 86 235 120 292 q 154 349 230 394 z m 353 424 q 400 456 427 494 q 454 532 454 572 q 454 614 420 641 q 387 668 331 668 q 274 668 242 640 q 211 612 211 575 q 211 539 237 507 q 262 475 353 424 z m 282 354 q 213 301 198 267 q 183 232 183 193 q 183 130 224 92 q 266 54 328 54 q 387 54 429 85 q 471 117 471 172 q 471 211 448 240 q 426 269 351 314 z"},"\\":{"x_min":0,"x_max":494,"ha":494,"o":"m 409 -145 l 6 771 l 85 771 l 488 -145 z"},"e":{"x_min":0,"x_max":557,"ha":557,"o":"m 485 17 q 388 -12 319 -12 q 196 -12 125 71 q 54 154 54 268 q 54 342 85 410 q 117 477 167 510 q 218 542 286 542 q 378 542 433 477 q 487 411 487 279 l 487 250 l 152 250 q 160 180 183 142 q 205 104 242 82 q 280 61 337 61 q 367 61 396 66 q 425 71 485 93 z m 157 322 l 391 322 q 391 402 360 436 q 329 470 280 470 q 225 470 194 433 q 163 396 157 322 z"},"b":{"x_min":0,"x_max":629,"ha":629,"o":"m 96 -6 l 96 771 l 192 771 l 192 431 q 222 486 266 514 q 311 542 370 542 q 468 542 521 470 q 575 397 575 281 q 575 156 514 72 q 454 -12 349 -12 q 318 -12 290 -5 q 262 2 240 16 q 219 30 192 60 l 181 -6 z m 192 126 q 242 83 271 71 q 300 60 334 60 q 405 60 439 120 q 473 179 473 271 q 473 357 443 408 q 413 458 350 458 q 310 458 270 436 q 231 415 192 371 z"},"%":{"x_min":0,"x_max":668,"ha":668,"o":"m 12 -18 l 581 741 l 656 741 l 87 -18 z m 160 361 q 87 361 47 411 q 6 461 6 542 q 6 623 47 673 q 88 723 160 723 q 231 723 272 673 q 313 623 313 542 q 313 461 272 411 q 231 361 160 361 z m 160 410 q 197 410 219 446 q 241 483 241 542 q 241 602 219 638 q 197 675 160 675 q 122 675 100 638 q 78 602 78 542 q 78 483 100 446 q 122 410 160 410 z m 509 0 q 437 0 396 50 q 355 100 355 181 q 355 262 396 312 q 437 361 509 361 q 581 361 622 312 q 663 262 663 181 q 663 100 622 50 q 581 0 509 0 z m 509 48 q 546 48 568 85 q 590 122 590 181 q 590 240 568 277 q 546 313 509 313 q 472 313 450 277 q 428 240 428 181 q 428 122 449 85 q 471 48 509 48 z"},"m":{"x_min":0,"x_max":934,"ha":934,"o":"m 96 0 l 96 530 l 192 530 l 192 431 q 222 477 267 510 q 313 542 373 542 q 408 542 434 531 q 459 520 480 499 q 501 479 518 431 q 547 479 593 510 q 638 542 696 542 q 752 542 798 507 q 843 472 843 386 l 843 0 l 747 0 l 747 371 q 747 423 724 442 q 702 461 675 461 q 641 461 604 440 q 567 419 518 355 l 518 0 l 421 0 l 421 371 q 421 424 399 443 q 376 462 348 462 q 313 462 278 441 q 243 420 192 355 l 192 0 z"},"#":{"x_min":0,"x_max":632,"ha":632,"o":"m 99 0 l 153 217 l 7 217 l 20 277 l 168 277 l 211 446 l 53 446 l 65 506 l 226 506 l 280 723 l 342 723 l 288 506 l 417 506 l 471 723 l 533 723 l 479 506 l 625 506 l 613 446 l 464 446 l 421 277 l 580 277 l 567 217 l 407 217 l 353 0 l 290 0 l 344 217 l 216 217 l 162 0 z m 231 277 l 359 277 l 402 446 l 273 446 z"},",":{"x_min":0,"x_max":316,"ha":316,"o":"m 98 -157 l 98 -121 q 113 -116 123 -104 q 132 -92 138 -73 q 145 -55 145 -10 l 145 0 l 98 0 l 98 121 l 218 121 l 218 16 q 218 -67 190 -109 q 161 -150 98 -157 z"},"n":{"x_min":0,"x_max":621,"ha":621,"o":"m 96 0 l 96 530 l 192 530 l 192 431 q 229 484 278 513 q 326 542 378 542 q 446 542 488 499 q 530 457 530 381 l 530 0 l 434 0 l 434 350 q 434 405 424 422 q 414 440 396 449 q 379 459 359 459 q 323 459 282 437 q 241 415 192 343 l 192 0 z"},"h":{"x_min":0,"x_max":621,"ha":621,"o":"m 96 0 l 96 771 l 192 771 l 192 431 q 229 484 278 513 q 326 542 378 542 q 446 542 488 499 q 530 457 530 381 l 530 0 l 434 0 l 434 350 q 434 405 424 422 q 414 440 396 449 q 379 459 359 459 q 323 459 282 437 q 241 415 192 343 l 192 0 z"},"z":{"x_min":0,"x_max":573,"ha":573,"o":"m 60 0 l 60 72 l 388 458 l 75 458 l 75 530 l 507 530 l 507 458 l 179 72 l 513 72 l 513 0 z"},"B":{"x_min":0,"x_max":575,"ha":575,"o":"m 93 0 l 93 723 l 281 723 q 403 723 454 676 q 505 628 505 563 q 505 511 471 459 q 437 407 356 376 q 426 355 461 327 q 496 300 515 261 q 534 222 534 181 q 534 130 508 87 q 482 43 439 22 q 397 0 306 0 z m 195 77 l 216 77 q 324 77 357 89 q 390 101 407 128 q 425 156 425 190 q 425 253 368 297 q 311 340 224 340 l 195 340 z m 195 405 l 228 405 q 317 405 358 444 q 400 482 400 541 q 400 592 363 619 q 326 646 235 646 l 195 646 z"},"K":{"x_min":0,"x_max":653,"ha":653,"o":"m 93 0 l 93 723 l 189 723 l 189 367 l 482 723 l 585 723 l 302 378 l 635 0 l 505 0 l 189 366 l 189 0 z"},"R":{"x_min":0,"x_max":632,"ha":632,"o":"m 93 0 l 93 723 l 312 723 q 434 723 480 668 q 526 614 526 543 q 526 502 510 462 q 494 422 463 391 q 433 360 381 338 l 622 0 l 496 0 l 291 306 l 195 306 l 195 0 z m 195 382 l 228 382 q 342 382 382 430 q 421 477 421 534 q 421 567 406 593 q 392 618 360 632 q 329 646 259 646 l 195 646 z"},"T":{"x_min":0,"x_max":632,"ha":632,"o":"m 265 0 l 265 646 l 9 646 l 9 723 l 624 723 l 624 646 l 368 646 l 368 0 z"},"P":{"x_min":0,"x_max":553,"ha":553,"o":"m 93 0 l 93 723 l 290 723 q 395 723 441 702 q 486 682 511 639 q 535 597 535 533 q 535 459 503 403 q 470 348 398 317 q 327 287 240 287 l 195 287 l 195 0 z m 195 365 l 236 365 q 338 365 383 411 q 427 458 427 526 q 427 563 413 589 q 399 614 368 630 q 336 646 258 646 l 195 646 z"},"|":{"x_min":0,"x_max":265,"ha":265,"o":"m 96 -145 l 96 771 l 168 771 l 168 -145 z"},"t":{"x_min":0,"x_max":374,"ha":374,"o":"m 333 0 q 288 -12 255 -12 q 184 -12 142 29 q 100 70 100 146 l 100 458 l 34 458 l 34 530 l 100 530 l 100 626 l 196 636 l 196 530 l 335 530 l 335 458 l 196 458 l 196 164 q 196 108 218 84 q 239 60 286 60 q 305 60 333 66 z"},"M":{"x_min":0,"x_max":861,"ha":861,"o":"m 93 0 l 93 723 l 235 723 l 436 164 l 642 723 l 769 723 l 769 0 l 673 0 l 673 588 l 474 48 l 375 48 l 181 589 l 181 0 z"},"g":{"x_min":0,"x_max":624,"ha":624,"o":"m 98 -176 l 109 -93 q 193 -132 274 -132 q 366 -132 401 -86 q 437 -39 437 40 l 437 124 q 416 80 371 46 q 327 12 263 12 q 154 12 104 91 q 54 169 54 269 q 54 344 83 410 q 113 476 165 509 q 217 542 284 542 q 313 542 339 535 q 365 528 387 515 q 409 501 437 470 l 437 530 l 533 530 l 533 145 q 533 -24 505 -86 q 477 -148 417 -176 q 357 -205 275 -205 q 248 -205 217 -202 q 186 -199 162 -194 q 138 -189 98 -176 z m 437 184 l 437 404 q 405 437 370 453 q 336 470 298 470 q 234 470 196 418 q 157 367 157 269 q 157 192 186 144 q 214 96 279 96 q 321 96 361 118 q 400 140 437 184 z"},"j":{"x_min":0,"x_max":304,"ha":304,"o":"m -75 -180 l -75 -104 q -8 -132 27 -132 q 51 -132 71 -123 q 91 -114 101 -94 q 111 -75 111 0 l 111 530 l 208 530 l 208 0 q 208 -81 188 -120 q 168 -159 128 -182 q 87 -205 35 -205 q -16 -205 -75 -180 z m 111 626 l 111 723 l 208 723 l 208 626 z"},"i":{"x_min":0,"x_max":289,"ha":289,"o":"m 96 0 l 96 530 l 192 530 l 192 0 z m 96 626 l 96 723 l 192 723 l 192 626 z"},"y":{"x_min":0,"x_max":522,"ha":522,"o":"m 127 -193 l 213 0 l 8 530 l 112 530 l 264 131 l 426 530 l 517 530 l 227 -193 z"},"@":{"x_min":0,"x_max":858,"ha":858,"o":"m 534 21 q 446 -18 361 -18 q 271 -18 198 20 q 125 58 85 131 q 45 204 45 281 q 45 393 109 505 q 173 618 281 679 q 388 741 502 741 q 593 741 666 701 q 739 661 781 589 q 822 518 822 435 q 822 358 787 288 q 752 218 695 181 q 638 145 570 145 q 526 145 508 161 q 489 178 489 201 q 489 221 499 252 l 518 313 l 512 313 q 467 226 417 185 q 367 145 323 145 q 279 145 254 176 q 229 207 229 254 q 229 330 270 413 q 311 496 366 535 q 420 575 485 575 q 500 575 524 574 q 548 572 562 572 l 629 572 l 567 262 q 564 246 564 231 q 564 215 574 207 q 583 199 602 199 q 644 199 685 234 q 725 269 747 318 q 768 367 768 426 q 768 542 687 614 q 606 687 495 687 q 396 687 302 631 q 209 576 155 479 q 100 383 100 286 q 100 221 133 160 q 167 100 227 68 q 287 36 369 36 q 397 36 430 40 q 463 44 516 71 z m 524 407 l 543 502 q 498 518 465 518 q 384 518 344 436 q 304 354 304 274 q 304 243 315 224 q 326 205 345 205 q 372 205 420 257 q 469 309 524 407 z"},".":{"x_min":0,"x_max":316,"ha":316,"o":"m 98 0 l 98 121 l 218 121 l 218 0 z"},"p":{"x_min":0,"x_max":629,"ha":629,"o":"m 96 -193 l 96 530 l 192 530 l 192 431 q 222 486 266 514 q 311 542 370 542 q 468 542 521 470 q 575 397 575 281 q 575 206 550 137 q 525 69 473 28 q 420 -12 354 -12 q 328 -12 284 -4 q 241 3 192 60 l 192 -193 z m 192 126 q 242 83 271 71 q 300 60 334 60 q 405 60 439 120 q 473 179 473 271 q 473 357 443 408 q 413 458 350 458 q 310 458 270 436 q 231 415 192 371 z"},"X":{"x_min":0,"x_max":626,"ha":626,"o":"m 8 0 l 248 363 l 20 723 l 141 723 l 314 450 l 497 723 l 594 723 l 363 374 l 600 0 l 479 0 l 295 287 l 105 0 z"},"*":{"x_min":0,"x_max":482,"ha":482,"o":"m 406 629 l 428 561 l 280 528 l 282 536 q 282 556 268 568 z m 379 409 l 321 367 l 244 497 q 254 498 264 505 q 274 512 278 522 z m 162 367 l 103 409 l 204 522 q 208 512 218 505 q 229 498 238 497 z m 54 561 l 76 629 l 215 568 q 201 556 201 536 l 202 528 z m 205 723 l 277 723 l 262 572 q 253 578 241 578 q 229 578 220 572 z"},"Y":{"x_min":0,"x_max":623,"ha":623,"o":"m 250 0 l 250 302 l 8 723 l 125 723 l 313 396 l 515 723 l 610 723 l 352 304 l 352 0 z"},"c":{"x_min":0,"x_max":512,"ha":512,"o":"m 464 16 q 371 -12 303 -12 q 232 -12 173 26 q 114 64 84 127 q 54 189 54 268 q 54 385 119 464 q 184 542 320 542 q 382 542 458 525 l 458 444 q 377 468 326 468 q 245 468 204 408 q 163 348 163 265 q 163 176 209 121 q 255 65 329 65 q 395 65 464 99 z"},"!":{"x_min":0,"x_max":316,"ha":316,"o":"m 110 0 l 110 96 l 206 96 l 206 0 z m 122 193 l 110 578 l 110 723 l 206 723 l 206 578 l 194 193 z"},"/":{"x_min":0,"x_max":494,"ha":494,"o":"m 6 -145 l 409 771 l 488 771 l 85 -145 z"},"[":{"x_min":0,"x_max":325,"ha":325,"o":"m 96 -145 l 96 771 l 289 771 l 289 699 l 181 699 l 181 -72 l 289 -72 l 289 -145 z"},"6":{"x_min":0,"x_max":632,"ha":632,"o":"m 172 375 q 200 411 225 428 q 250 445 281 455 q 312 464 345 464 q 407 464 457 435 q 508 405 534 354 q 561 303 561 240 q 561 171 530 110 q 499 50 448 16 q 396 -18 321 -18 q 192 -18 129 87 q 67 191 67 345 q 67 447 97 540 q 127 633 190 687 q 252 741 361 741 q 395 741 426 737 q 458 732 523 714 l 523 630 q 421 669 355 669 q 259 669 215 587 q 172 506 172 375 z m 464 221 q 464 307 424 351 q 384 395 325 395 q 276 395 226 359 q 176 323 176 255 q 176 185 211 120 q 246 54 328 54 q 388 54 426 98 q 464 142 464 221 z"},"r":{"x_min":0,"x_max":409,"ha":409,"o":"m 96 0 l 96 530 l 192 530 l 192 431 q 220 484 263 513 q 307 542 358 542 q 373 542 389 540 l 389 450 q 365 458 345 458 q 300 458 261 431 q 223 404 192 350 l 192 0 z"},"2":{"x_min":0,"x_max":632,"ha":632,"o":"m 83 0 l 83 84 q 125 183 253 298 l 308 348 q 368 402 391 447 q 415 491 415 539 q 415 600 377 634 q 340 668 278 668 q 251 668 226 663 q 202 658 174 647 q 146 636 101 610 l 101 695 q 197 741 292 741 q 396 741 457 684 q 517 626 517 541 q 517 485 492 436 q 467 387 370 304 l 333 272 q 292 238 251 189 q 210 140 199 84 l 513 84 l 513 0 z"},"{":{"x_min":0,"x_max":325,"ha":325,"o":"m 12 350 l 36 350 q 111 350 111 428 q 111 461 103 497 l 94 539 q 84 581 84 621 q 84 659 105 694 q 126 728 161 748 q 195 767 259 771 l 259 699 l 246 699 q 220 699 194 684 q 168 668 168 638 q 168 627 175 592 l 183 542 q 188 510 188 465 q 188 414 171 379 q 154 345 117 313 q 154 282 171 247 q 188 213 188 160 q 188 116 183 84 l 175 35 q 168 0 168 -12 q 168 -42 194 -57 q 219 -72 246 -72 l 259 -72 l 259 -145 q 195 -141 161 -121 q 126 -101 105 -67 q 84 -33 84 6 q 84 46 94 87 l 103 130 q 111 165 111 199 q 111 277 36 277 l 12 277 z"},"9":{"x_min":0,"x_max":632,"ha":632,"o":"m 114 4 l 114 86 q 206 54 270 54 q 330 54 372 86 q 414 117 437 188 q 461 259 461 343 q 429 304 405 287 q 382 271 354 262 q 326 253 294 253 q 234 253 183 285 q 132 317 104 369 q 76 420 76 484 q 76 551 107 613 q 138 674 190 708 q 241 741 314 741 q 443 741 505 637 q 567 533 567 388 q 567 277 531 179 q 494 81 428 31 q 362 -18 261 -18 q 204 -18 114 4 z m 172 500 q 172 419 210 371 q 247 322 312 322 q 365 322 412 361 q 459 399 459 464 q 459 520 439 572 q 418 625 385 647 q 353 669 308 669 q 244 669 208 624 q 172 578 172 500 z"}," ":{"x_min":0,"x_max":316,"ha":316,"o":""},"I":{"x_min":0,"x_max":288,"ha":288,"o":"m 93 0 l 93 723 l 195 723 l 195 0 z"},"H":{"x_min":0,"x_max":735,"ha":735,"o":"m 93 0 l 93 723 l 196 723 l 196 418 l 540 418 l 540 723 l 642 723 l 642 0 l 540 0 l 540 341 l 196 341 l 196 0 z"},"4":{"x_min":0,"x_max":632,"ha":632,"o":"m 376 0 l 376 205 l 51 205 l 51 277 l 376 723 l 467 723 l 467 283 l 563 283 l 563 205 l 467 205 l 467 0 z m 146 283 l 383 283 l 383 604 z"},"~":{"x_min":0,"x_max":632,"ha":632,"o":"m 51 217 q 51 287 89 332 q 127 377 186 377 q 211 377 235 368 q 259 359 291 343 l 343 315 l 406 282 q 430 271 450 271 q 473 271 491 293 q 509 315 509 358 l 509 361 l 582 361 q 576 271 539 235 q 501 199 452 199 q 425 199 403 206 q 381 213 332 238 l 277 266 l 219 296 q 200 305 185 305 q 163 305 143 285 q 124 264 124 217 z"},"D":{"x_min":0,"x_max":749,"ha":749,"o":"m 93 0 l 93 723 l 333 723 q 473 723 544 682 q 616 642 657 565 q 698 487 698 378 q 698 275 660 189 q 623 104 547 52 q 471 0 335 0 z m 196 77 l 327 77 q 430 77 481 109 q 532 142 561 212 q 589 282 589 369 q 589 445 564 508 q 540 570 484 608 q 428 646 280 646 l 196 646 z"},"^":{"x_min":0,"x_max":632,"ha":632,"o":"m 316 561 l 132 193 l 51 193 l 316 723 l 582 193 l 500 193 z"},"0":{"x_min":0,"x_max":632,"ha":632,"o":"m 316 -18 q 235 -18 177 34 q 119 86 91 175 q 63 263 63 361 q 63 459 91 548 q 119 636 177 688 q 236 741 316 741 q 397 741 456 689 q 514 637 542 548 q 569 459 569 361 q 569 264 542 176 q 515 87 456 35 q 398 -18 316 -18 z m 316 54 q 396 54 431 139 q 467 223 467 361 q 467 500 431 584 q 396 668 316 668 q 237 668 202 584 q 166 500 166 361 q 166 223 202 139 q 237 54 316 54 z"},"F":{"x_min":0,"x_max":536,"ha":536,"o":"m 93 0 l 93 723 l 497 723 l 497 646 l 196 646 l 196 404 l 449 404 l 449 328 l 196 328 l 196 0 z"},"`":{"x_min":0,"x_max":614,"ha":614,"o":"m 307 626 l 175 771 l 283 771 l 392 626 z"},"k":{"x_min":0,"x_max":584,"ha":584,"o":"m 96 0 l 96 771 l 192 771 l 192 273 l 417 530 l 521 530 l 306 283 l 565 0 l 442 0 l 192 272 l 192 0 z"},"u":{"x_min":0,"x_max":621,"ha":621,"o":"m 428 0 l 428 100 q 391 46 342 17 q 294 -12 242 -12 q 175 -12 133 31 q 90 73 90 149 l 90 530 l 187 530 l 187 181 q 187 125 196 108 q 206 90 224 81 q 241 71 262 71 q 297 71 338 93 q 379 115 428 187 l 428 530 l 524 530 l 524 0 z"},"]":{"x_min":0,"x_max":325,"ha":325,"o":"m 229 771 l 229 -145 l 36 -145 l 36 -72 l 145 -72 l 145 699 l 36 699 l 36 771 z"},"U":{"x_min":0,"x_max":693,"ha":693,"o":"m 87 723 l 190 723 l 190 267 q 190 147 234 103 q 279 59 358 59 q 409 59 443 76 q 478 93 497 132 q 516 171 516 263 l 516 723 l 606 723 l 606 265 q 606 147 577 95 q 548 43 495 12 q 442 -18 354 -18 q 261 -18 204 14 q 146 45 117 101 q 87 156 87 268 z"},"o":{"x_min":0,"x_max":614,"ha":614,"o":"m 307 -12 q 231 -12 176 19 q 120 50 87 116 q 54 183 54 265 q 54 342 84 408 q 114 475 171 508 q 228 542 307 542 q 383 542 439 511 q 495 480 528 414 q 560 347 560 265 q 560 187 530 121 q 500 55 443 21 q 387 -12 307 -12 z m 307 60 q 379 60 418 114 q 458 167 458 265 q 458 364 418 417 q 378 470 307 470 q 236 470 196 417 q 157 364 157 265 q 157 167 196 114 q 236 60 307 60 z"},"N":{"x_min":0,"x_max":739,"ha":739,"o":"m 93 0 l 93 723 l 194 723 l 558 165 l 558 723 l 646 723 l 646 0 l 545 0 l 181 558 l 181 0 z"},"+":{"x_min":0,"x_max":632,"ha":632,"o":"m 280 24 l 280 253 l 51 253 l 51 325 l 280 325 l 280 554 l 353 554 l 353 325 l 582 325 l 582 253 l 353 253 l 353 24 z"},"G":{"x_min":0,"x_max":723,"ha":723,"o":"m 636 20 q 542 -8 498 -13 q 454 -18 407 -18 q 277 -18 203 29 q 128 76 90 164 q 51 252 51 361 q 51 528 139 634 q 227 741 407 741 q 516 741 635 708 l 635 613 q 525 651 484 657 q 443 664 406 664 q 276 664 218 575 q 160 487 160 361 q 160 283 184 215 q 209 147 267 103 q 325 59 423 59 q 448 59 470 61 q 492 64 534 77 l 534 312 l 636 312 z"},"q":{"x_min":0,"x_max":629,"ha":629,"o":"m 437 -193 l 437 100 q 407 44 363 16 q 319 -12 260 -12 q 162 -12 108 60 q 54 132 54 249 q 54 375 115 458 q 175 542 280 542 q 311 542 339 535 q 367 527 388 514 q 410 500 437 470 l 437 530 l 533 530 l 533 -193 z m 437 404 q 387 448 358 459 q 329 470 295 470 q 225 470 191 411 q 157 352 157 258 q 157 172 187 122 q 217 72 280 72 q 320 72 359 94 q 398 116 437 160 z"},"d":{"x_min":0,"x_max":629,"ha":629,"o":"m 437 0 l 437 100 q 407 44 363 16 q 319 -12 260 -12 q 162 -12 108 60 q 54 132 54 249 q 54 375 115 458 q 175 542 280 542 q 311 542 339 535 q 367 527 388 514 q 410 500 437 470 l 437 771 l 533 771 l 533 0 z m 437 404 q 387 448 358 459 q 329 470 295 470 q 225 470 191 411 q 157 352 157 258 q 157 172 187 122 q 217 72 280 72 q 320 72 359 94 q 398 116 437 160 z"},"1":{"x_min":0,"x_max":632,"ha":632,"o":"m 262 0 l 262 650 l 147 650 l 147 711 l 358 729 l 358 0 z"},"5":{"x_min":0,"x_max":632,"ha":632,"o":"m 122 -3 l 122 83 q 193 54 258 54 q 336 54 374 100 q 411 146 411 211 q 411 286 357 330 q 302 375 187 375 q 161 375 134 371 l 134 723 l 500 723 l 500 639 l 218 639 l 218 448 q 371 448 442 379 q 514 309 514 207 q 514 113 449 48 q 384 -18 247 -18 q 191 -18 122 -3 z"}}}
